<svg xmlns="http://www.w3.org/2000/svg" xml:space="preserve" viewBox="0 0 512 109.32"><linearGradient id="a" x1="-15.97" x2="124.614" y1="-9.795" y2="54.969" gradientUnits="userSpaceOnUse"><stop offset="0" stop-color="#8948e7"/><stop
        offset=".996" stop-color="#7210ff"/></linearGradient>
    <path fill="url(#a)" d="M100.39 26.96v41.93h17.9l-.04-41.93z"/>
    <linearGradient id="b" x1="-23.435" x2="117.149" y1="6.41" y2="71.173" gradientUnits="userSpaceOnUse"><stop offset="0" stop-color="#8948e7"/>
        <stop offset=".996" stop-color="#7210ff"/></linearGradient>
    <path fill="url(#b)"
          d="M27.75 76.94h34.21v16.12H18.93c-4 0-7.02-.71-9.04-2.12-2.03-1.41-3.36-3.61-3.99-6.59-.17-.78-.3-1.59-.39-2.41-.1-.83-.14-1.75-.12-2.77L5.3 27.28c.02-4.71 1.02-8.2 3.01-10.47 1.99-2.28 5.49-3.42 10.52-3.42h123.39l.08 15.89H27.74c-1.88 0-3.1.29-3.64.88-.54.59-.82 1.78-.82 3.59l-.1 38.84c0 .39.02.73.03 1 .02.28.06.57.13.88.18.86.59 1.49 1.23 1.89.62.39 1.69.58 3.18.58z"/>
    <linearGradient id="c" x1="-29.803" x2="110.781" y1="20.232" y2="84.996" gradientUnits="userSpaceOnUse"><stop offset="0" stop-color="#8948e7"/>
        <stop offset=".996" stop-color="#7210ff"/></linearGradient>
    <path fill="url(#c)" d="M100.39 76.6v15.44h17.9l-.04-15.44z"/>
    <linearGradient id="d" x1="36.498" x2="84.767" y1="68.887" y2="68.887" gradientUnits="userSpaceOnUse"><stop offset="0" stop-color="#8948e7"/>
        <stop offset=".996" stop-color="#7210ff"/></linearGradient>
    <path fill="url(#d)" d="m36.5 44.71.03 15.65H66.8l.08 32.71h17.89l-.08-48.36z"/>
    <path fill="#a7a9ac"
          d="M179.45 87.4c-.2 1.83-.91 3.28-2.14 4.35-1.23 1.07-2.79 1.61-4.68 1.61-2.22 0-3.99-.74-5.29-2.22-1.31-1.48-1.96-3.48-1.96-6.01 0-2.58.65-4.63 1.96-6.14 1.31-1.51 3.07-2.27 5.29-2.27 1.87 0 3.42.51 4.65 1.52 1.23 1.02 1.96 2.39 2.17 4.12h-3.31c-.11-.85-.47-1.52-1.1-2.02-.62-.5-1.42-.75-2.39-.75-1.23 0-2.18.49-2.87 1.46s-1.04 2.33-1.04 4.07c0 1.69.35 3.01 1.04 3.96.69.96 1.65 1.43 2.87 1.43.97 0 1.77-.28 2.39-.83.62-.55.99-1.31 1.1-2.26h3.31zm15.7 5.96c-2.32 0-4.16-.74-5.53-2.22s-2.05-3.48-2.05-6.01c0-2.58.68-4.63 2.05-6.14 1.37-1.51 3.21-2.27 5.53-2.27 2.33 0 4.17.76 5.54 2.27s2.05 3.56 2.05 6.14c0 2.53-.68 4.53-2.05 6.01s-3.21 2.22-5.54 2.22zm0-2.8c1.34 0 2.39-.48 3.15-1.44.76-.96 1.14-2.3 1.14-4.01 0-1.75-.38-3.12-1.14-4.11-.76-.99-1.81-1.48-3.15-1.48-1.34 0-2.39.49-3.15 1.48-.76.99-1.14 2.36-1.14 4.11 0 1.71.38 3.05 1.14 4.01s1.8 1.44 3.15 1.44zm19.46 2.37h-3.07V77.15H215l6.33 11.07V77.15h3.08v15.78h-3.28l-6.51-11.36v11.36zm22.2 0h-3.07V77.15h3.46l6.33 11.07V77.15h3.08v15.78h-3.28l-6.51-11.36v11.36zm19.28 0V77.15h11.61v2.8h-8.32v3.36h7.71v2.71h-7.71v4.11h8.69v2.8h-11.98zm34.34-5.53c-.2 1.83-.91 3.28-2.14 4.35-1.23 1.07-2.79 1.61-4.68 1.61-2.22 0-3.99-.74-5.29-2.22s-1.96-3.48-1.96-6.01c0-2.58.65-4.63 1.96-6.14 1.31-1.51 3.07-2.27 5.29-2.27 1.87 0 3.42.51 4.65 1.52 1.23 1.02 1.96 2.39 2.17 4.12h-3.31c-.11-.85-.47-1.52-1.1-2.02-.63-.5-1.42-.75-2.39-.75-1.23 0-2.18.49-2.88 1.46-.69.97-1.04 2.33-1.04 4.07 0 1.69.34 3.01 1.04 3.96.69.96 1.65 1.43 2.88 1.43.97 0 1.77-.28 2.39-.83.62-.55.99-1.31 1.1-2.26h3.31zm12.24 5.53V79.95h-4.77v-2.8h12.83v2.8h-4.76v12.98h-3.3zm16.06 0V77.15h3.29v15.78h-3.29zm15.61 0h-3.07V77.15h3.46l6.33 11.07V77.15h3.08v15.78h-3.28l-6.51-11.36v11.36zm26.07.43c-2.3 0-4.13-.74-5.48-2.22-1.35-1.48-2.02-3.48-2.02-6.01 0-2.58.7-4.63 2.1-6.14 1.4-1.51 3.3-2.27 5.69-2.27 1.92 0 3.5.48 4.74 1.44 1.24.96 1.97 2.26 2.17 3.89h-3.31c-.08-.69-.47-1.3-1.15-1.81-.69-.52-1.45-.78-2.28-.78-1.43 0-2.55.5-3.36 1.49s-1.21 2.37-1.21 4.13c0 1.79.39 3.16 1.17 4.09s1.91 1.4 3.41 1.4h-.01c1.28 0 2.27-.49 2.99-1.47.39-.55.68-1.2.86-1.94v-.04H361V84.4h6.61v8.51h-2.2l-.32-2.04-.2.26c-1.11 1.48-2.61 2.22-4.5 2.22h.02zm31.72-.43V79.95h-4.77v-2.8h12.83v2.8h-4.76v12.98h-3.3zm15.1 0 5.58-15.78h3.82l5.59 15.78h-3.5l-1.06-3.21h-5.98l-1.05 3.21h-3.4zm7.44-12.27L412.59 87h4.2l-2.12-6.34zm15.99 12.27V77.15h3.29v12.98h7.85v2.8h-11.14zm19.74 0V77.15h11.61v2.8h-8.32v3.36h7.71v2.71h-7.71v4.11h8.69v2.8H450.4zm23.89 0h-3.07V77.15h3.46L481 88.22V77.15h3.08v15.78h-3.28l-6.51-11.36v11.36zm22.69 0V79.95h-4.77v-2.8h12.83v2.8h-4.76v12.98h-3.3z"/>
    <path fill="#8948e7"
          d="M185.15 61.98c-6.37 0-11.42-2.05-15.15-6.14-3.73-4.09-5.59-9.63-5.59-16.61 0-7.14 1.94-12.8 5.82-16.99 3.88-4.18 9.12-6.28 15.74-6.28 5.3 0 9.67 1.33 13.1 3.97 3.43 2.65 5.43 6.24 6 10.76h-9.14c-.23-1.91-1.29-3.58-3.19-5.01-1.9-1.43-4-2.15-6.29-2.15-3.96 0-7.06 1.37-9.3 4.11-2.24 2.74-3.36 6.54-3.36 11.41 0 4.96 1.07 8.73 3.22 11.31 2.15 2.58 5.29 3.87 9.43 3.87h-.03c3.52 0 6.28-1.35 8.25-4.06 1.09-1.52 1.89-3.31 2.39-5.36v-.1h-10.27v-7.5h18.28v23.54H199l-.89-5.63-.55.72c-3.07 4.09-7.22 6.14-12.45 6.14h.04zm47.52 0c-6.41 0-11.51-2.05-15.3-6.14-3.79-4.09-5.68-9.63-5.68-16.61 0-7.14 1.89-12.8 5.68-16.99 3.79-4.18 8.89-6.28 15.3-6.28 6.44 0 11.54 2.09 15.32 6.28 3.77 4.18 5.66 9.85 5.66 16.99 0 6.98-1.89 12.52-5.66 16.61-3.78 4.09-8.89 6.14-15.32 6.14zm0-7.74c3.71 0 6.61-1.33 8.72-3.99 2.1-2.66 3.16-6.36 3.16-11.09 0-4.84-1.05-8.63-3.16-11.36-2.1-2.73-5.01-4.09-8.72-4.09-3.71 0-6.61 1.36-8.72 4.09-2.1 2.73-3.16 6.52-3.16 11.36 0 4.73 1.05 8.43 3.14 11.09 2.1 2.66 5.01 3.99 8.74 3.99z"/>
    <path fill="#58595b"
          d="M270.36 60.79V24.9h-13.2v-7.74h35.48v7.74h-13.17v35.88h-9.11zm34.76.82c-3 0-5.41-.85-7.23-2.56s-2.73-3.96-2.73-6.75c0-2.93.82-5.29 2.47-7.06 1.65-1.77 4.04-2.89 7.18-3.34l5.63-.78c1.46-.2 2.67-.53 3.65-.99.41-.2.73-.56.96-1.07.23-.51.31-1.04.24-1.59-.11-.91-.58-1.61-1.4-2.11-.96-.61-2.34-.92-4.16-.92-1.64 0-2.91.39-3.82 1.18-.91.78-1.39 1.9-1.43 3.36h-8.19c.18-3.77 1.47-6.61 3.87-8.49 2.4-1.89 5.91-2.83 10.52-2.83 4.02 0 7.2.85 9.52 2.54 2.32 1.69 3.48 4.01 3.48 6.94v18.04c0 1.43.12 2.44.36 3.04.24.59.72 1.05 1.45 1.36v1.19h-9.21c-.39-1.3-.64-2.57-.75-3.82l-.03-.07c-2.67 3.14-6.13 4.73-10.38 4.73zm10.23-12.76v-3.68c-1 .55-2.31.99-3.92 1.33l-3.14.58c-1.48.27-2.6.78-3.38 1.52-.77.74-1.16 1.68-1.16 2.81 0 1.3.35 2.31 1.04 3.04.69.73 1.65 1.09 2.88 1.09 2.75 0 4.93-.96 6.55-2.87.32-.39.58-.94.79-1.67.23-.73.34-1.45.34-2.15zm16.07 11.94V17.16h8.49v43.63h-8.49zm29.44.82c-4.91 0-8.7-1.51-11.36-4.54-2.66-3.02-3.99-7.33-3.99-12.93 0-5.16 1.35-9.2 4.06-12.13 2.71-2.92 6.47-4.38 11.29-4.38 4.91 0 8.7 1.49 11.36 4.47 2.66 2.98 3.99 7.22 3.99 12.72.04.64 0 1.27-.14 1.91h-22c.2 2.57.77 4.48 1.71 5.73 1.18 1.59 3.16 2.39 5.94 2.39 1.27 0 2.46-.36 3.56-1.09 1.1-.73 1.77-1.61 2-2.66h8.67c-.75 3.3-2.46 5.87-5.12 7.73-2.67 1.85-5.99 2.78-9.97 2.78zm6.48-20.3c-.18-1.93-.69-3.45-1.54-4.54-1.09-1.43-2.79-2.15-5.08-2.15-2.18 0-3.85.84-5.01 2.52-.71 1.07-1.22 2.46-1.54 4.16h13.17zm14.53 19.48v-32.3h8.09v4.81c.34-.59.71-1.14 1.09-1.64 2.12-2.68 5.16-4.03 9.14-4.03 3.41 0 6.08 1.01 8.02 3.04 1.93 2.02 2.9 4.82 2.9 8.39v21.73h-8.52v-20.2c0-1.98-.43-3.45-1.3-4.42-.86-.97-2.18-1.45-3.96-1.45-2.23 0-3.95.67-5.15 2.01-1.21 1.34-1.81 3.29-1.81 5.83v18.22h-8.5zm51.95.17c-1.43.11-3.18.17-5.25.17-3.02 0-5.19-.53-6.5-1.6-1.31-1.07-1.96-2.83-1.96-5.29V34.45h-4.5v-5.97h4.5v-8.66h8.49v8.66h5.22v5.97h-5.22V52.8c0 .75.23 1.25.68 1.48.45.24 1.38.36 2.76.36h1.77v6.32zm18.18.65c-4.91 0-8.7-1.51-11.36-4.54-2.66-3.02-3.99-7.33-3.99-12.93 0-5.16 1.35-9.2 4.06-12.13 2.71-2.92 6.47-4.38 11.29-4.38 4.91 0 8.7 1.49 11.36 4.47 2.66 2.98 3.99 7.22 3.99 12.72.04.64 0 1.27-.14 1.91h-22c.2 2.57.77 4.48 1.71 5.73 1.18 1.59 3.16 2.39 5.94 2.39 1.27 0 2.46-.36 3.56-1.09 1.1-.73 1.77-1.61 2-2.66h8.67c-.75 3.3-2.46 5.87-5.12 7.73-2.67 1.85-5.99 2.78-9.97 2.78zm6.48-20.3c-.18-1.93-.69-3.45-1.54-4.54-1.09-1.43-2.79-2.15-5.08-2.15-2.18 0-3.85.84-5.01 2.52-.71 1.07-1.22 2.46-1.54 4.16h13.17zm26.41 20.3c-4.12 0-7.44-1.6-9.96-4.81-2.52-3.21-3.79-7.42-3.79-12.66 0-4.96 1.26-8.95 3.77-11.97s5.82-4.54 9.91-4.54c3.66 0 6.61 1.55 8.83 4.64l.38.48V17.16h8.49v43.63h-8.26v-4.13l-.14.2c-2.33 3.16-5.41 4.75-9.23 4.75zM487.17 35c-2.27 0-4.05.88-5.34 2.63s-1.93 4.18-1.93 7.3c0 3.05.64 5.42 1.91 7.13s3.05 2.56 5.32 2.56c2.3 0 4.09-.9 5.37-2.69 1.29-1.8 1.93-4.3 1.93-7.5 0-2.96-.64-5.26-1.93-6.92-1.28-1.68-3.05-2.51-5.33-2.51z"/></svg>